HIERARCHY
ROOT Hips
{
    OFFSET 0.000000 0.000000 0.000000
    CHANNELS 6 Xposition Yposition Zposition Zrotation Xrotation Yrotation
    JOINT Spine
    {
        OFFSET -0.000000 14.517291 0.000000
        CHANNELS 3 Zrotation Xrotation Yrotation
        JOINT Spine1
        {
            OFFSET -0.000000 37.558300 0.000000
            CHANNELS 3 Zrotation Xrotation Yrotation
            JOINT Neck
            {
                OFFSET -0.000000 37.404057 3.400369
                CHANNELS 3 Zrotation Xrotation Yrotation
                JOINT Head
                {
                    OFFSET -0.000000 24.785618 -3.540803
                    CHANNELS 3 Zrotation Xrotation Yrotation
                    End Site
                    {
                        OFFSET -0.000000 35.408028 0.000000
                    }
                }
            }
            JOINT LeftShoulder
            {
                OFFSET 6.992933 33.973492 -0.192664
                CHANNELS 3 Zrotation Xrotation Yrotation
                JOINT LeftArm
                {
                    OFFSET 21.527611 0.000000 0.000000
                    CHANNELS 3 Zrotation Xrotation Yrotation
                    JOINT LeftForeArm
                    {
                        OFFSET 56.353916 0.000000 0.000000
                        CHANNELS 3 Zrotation Xrotation Yrotation
                        JOINT LeftHand
                        {
                            OFFSET 47.774071 0.000000 0.000000
                            CHANNELS 3 Zrotation Xrotation Yrotation
                            End Site
                            {
                                OFFSET 26.556021 0.000000 0.000000
                            }
                        }
                    }
                }
            }
            JOINT RightShoulder
            {
                OFFSET -7.065357 33.973492 -0.192664
                CHANNELS 3 Zrotation Xrotation Yrotation
                JOINT RightArm
                {
                    OFFSET -21.527611 0.000000 0.000000
                    CHANNELS 3 Zrotation Xrotation Yrotation
                    JOINT RightForeArm
                    {
                        OFFSET -56.353916 0.000000 0.000000
                        CHANNELS 3 Zrotation Xrotation Yrotation
                        JOINT RightHand
                        {
                            OFFSET -47.774071 0.000000 0.000000
                            CHANNELS 3 Zrotation Xrotation Yrotation
                            End Site
                            {
                                OFFSET -26.556021 0.000000 0.000000
                            }
                        }
                    }
                }
            }
        }
    }
    JOINT LeftUpLeg
    {
        OFFSET 17.704014 0.000000 0.000000
        CHANNELS 3 Zrotation Xrotation Yrotation
        JOINT LeftLeg
        {
            OFFSET -0.000000 -81.181816 0.000000
            CHANNELS 3 Zrotation Xrotation Yrotation
            JOINT LeftFoot
            {
                OFFSET -0.000000 -62.821102 0.000000
                CHANNELS 3 Zrotation Xrotation Yrotation
                JOINT LeftToeBase
                {
                    OFFSET -0.000000 -11.507608 26.556021
                    CHANNELS 3 Zrotation Xrotation Yrotation
                    End Site
                    {
                        OFFSET -0.000000 0.000000 7.081605
                    }
                }
            }
        }
    }
    JOINT RightUpLeg
    {
        OFFSET -17.704014 0.000000 0.000000
        CHANNELS 3 Zrotation Xrotation Yrotation
        JOINT RightLeg
        {
            OFFSET -0.000000 -81.181816 0.000000
            CHANNELS 3 Zrotation Xrotation Yrotation
            JOINT RightFoot
            {
                OFFSET -0.000000 -62.821102 0.000000
                CHANNELS 3 Zrotation Xrotation Yrotation
                JOINT RightToeBase
                {
                    OFFSET -0.000000 -11.507608 26.556021
                    CHANNELS 3 Zrotation Xrotation Yrotation
                    End Site
                    {
                        OFFSET -0.000000 0.000000 7.081605
                    }
                }
            }
        }
    }
}
MOTION
Frames:    12
Frame Time:    0.008333
9.934859    150.188797    -18.397873    -3.641462    -14.363358    -1.851351    5.569204    -3.752246    12.974975    -2.963851    -0.887349    4.241427    7.549364    -7.243647    -1.115857    3.471117    16.859571    -2.790864    2.670711    3.479161    -6.907825    -45.231030    20.625708    -37.535519    -7.188276    -14.570371    -129.371719    -0.011201    -28.750872    -3.697575    -14.763350    2.075628    6.604193    30.333517    -10.928721    74.816086    2.385777    -19.765808    7.444219    12.668331    -15.487561    40.104431    8.480665    -21.300722    -17.881008    -13.839014    28.168352    -16.053932    -6.278564    0.225789    39.620705    0.000000    0.000000    0.000000    5.249130    16.172297    -24.982132    3.146657    35.824703    -8.107788    -2.218116    -36.811863    -16.277191    0.000000    0.000000    0.000000    
10.038480    150.333527    -18.166033    -3.606836    -14.012262    -1.824208    5.528571    -3.732960    12.986378    -2.915597    -0.932771    4.245184    7.538911    -7.226363    -1.072081    3.469881    16.739019    -2.738021    2.629984    3.459930    -6.939292    -45.173733    20.620527    -37.522839    -7.174815    -14.594046    -129.365280    -0.043072    -28.744059    -3.707705    -14.790602    2.041323    6.590240    30.362284    -11.059829    74.781754    2.412223    -19.684793    7.537742    12.577049    -15.437877    40.128235    8.438648    -21.527512    -17.959423    -13.890922    28.079426    -15.961432    -6.299408    0.178696    39.689770    0.000000    0.000000    0.000000    5.241626    16.054708    -24.955799    3.133231    35.431320    -8.083886    -2.078264    -36.579742    -16.234552    0.000000    0.000000    0.000000    
10.158369    150.468552    -17.901821    -3.583429    -13.688642    -1.806010    5.527062    -3.711494    13.014894    -2.885511    -0.931832    4.255349    7.534713    -7.282245    -1.029447    3.445938    16.689888    -2.694758    2.574414    3.398501    -7.014046    -45.179886    20.568920    -37.462845    -7.201325    -14.530301    -129.369171    -0.062155    -28.736988    -3.721733    -14.806986    1.971244    6.568903    30.376484    -11.162168    74.733315    2.445917    -19.669743    7.622408    12.686782    -15.393106    40.079521    8.396546    -21.726637    -18.030390    -13.938119    28.023970    -15.858163    -6.242564    0.162679    39.676765    0.000000    0.000000    0.000000    5.235357    15.987823    -24.904879    3.150414    35.018555    -8.122862    -1.926244    -36.352264    -16.152309    0.000000    0.000000    0.000000    
10.265325    150.613922    -17.655468    -3.548063    -13.357809    -1.786674    5.514094    -3.655755    13.024364    -2.898321    -0.970954    4.258468    7.565693    -7.339839    -0.965277    3.419410    16.655060    -2.637130    2.582145    3.347903    -7.038028    -45.166870    20.533113    -37.444859    -7.203500    -14.511097    -129.379089    -0.088161    -28.725952    -3.714495    -14.821855    1.919603    6.553463    30.363665    -11.278436    74.690613    2.481437    -19.638361    7.737180    12.636792    -15.380378    40.105274    8.338866    -21.941765    -18.100492    -13.964581    27.969620    -15.797621    -6.202995    0.188462    39.704792    0.000000    0.000000    0.000000    5.199256    15.859135    -24.866802    3.137664    34.608810    -8.137182    -1.753246    -36.043182    -16.061789    0.000000    0.000000    0.000000    
10.373828    150.746368    -17.384417    -3.515831    -13.028002    -1.780821    5.490555    -3.589880    13.044714    -2.900057    -1.044963    4.264675    7.640144    -7.365683    -0.890118    3.341415    16.585091    -2.574126    2.606603    3.312740    -7.032709    -45.164494    20.563990    -37.466492    -7.181010    -14.550312    -129.367859    -0.139729    -28.713787    -3.743338    -14.806758    1.915946    6.480804    30.393986    -11.416483    74.728531    2.542601    -19.573631    7.812878    12.638535    -15.315667    40.133686    8.285671    -22.146292    -18.103418    -13.960155    27.941175    -15.765348    -6.164959    0.153788    39.704124    0.000000    0.000000    0.000000    5.180802    15.792009    -24.810457    3.160132    34.194794    -8.235616    -1.556038    -35.827824    -15.907190    0.000000    0.000000    0.000000    
10.493863    150.883942    -17.132196    -3.482149    -12.692492    -1.775476    5.495298    -3.503750    13.057518    -2.959185    -1.126524    4.267628    7.750112    -7.366923    -0.825169    3.230762    16.464621    -2.526231    2.669170    3.328922    -7.060327    -45.210972    20.432899    -37.465466    -7.206306    -14.429113    -129.374039    -0.147715    -28.653507    -3.787568    -14.775357    1.908358    6.458274    30.319096    -11.509701    74.701256    2.508825    -19.579823    7.908623    12.649807    -15.314044    40.164566    8.224174    -22.364910    -18.172680    -13.987044    27.897516    -15.680752    -6.122036    0.162253    39.711170    0.000000    0.000000    0.000000    5.152449    15.701571    -24.796335    3.145183    33.806576    -8.223253    -1.394831    -35.597404    -15.808259    0.000000    0.000000    0.000000    
10.606999    151.019852    -16.862448    -3.446980    -12.360356    -1.774974    5.470786    -3.459570    13.047469    -2.924361    -1.141961    4.265202    7.747290    -7.397359    -0.756499    3.177672    16.364592    -2.453161    2.617754    3.320204    -7.026537    -45.104057    20.468555    -37.502289    -7.164099    -14.582427    -129.374466    -0.183840    -28.711653    -3.848282    -14.832160    1.804240    6.481925    30.349602    -11.623779    74.659798    2.551514    -19.516586    7.971583    12.623321    -15.265265    40.145428    8.166741    -22.572998    -18.269558    -14.031294    27.848930    -15.591225    -6.083651    0.133332    39.751312    0.000000    0.000000    0.000000    5.123791    15.626374    -24.762503    3.149351    33.405140    -8.223707    -1.212201    -35.366650    -15.732014    0.000000    0.000000    0.000000    
10.733988    151.138275    -16.590973    -3.405174    -12.040114    -1.786530    5.481010    -3.329727    13.049527    -3.032074    -1.248654    4.263990    7.909597    -7.401164    -0.678086    3.026208    16.227385    -2.402676    2.715551    3.330970    -6.985672    -45.145710    20.415012    -37.562317    -7.172224    -14.533838    -129.369843    -0.155928    -28.682667    -3.811295    -14.756137    1.748469    6.478300    30.314091    -11.713624    74.625130    2.563357    -19.541071    8.051394    12.631342    -15.283854    40.196205    8.097735    -22.782681    -18.361216    -14.093429    27.832199    -15.474640    -6.000512    0.117513    39.781300    0.000000    0.000000    0.000000    5.079572    15.559008    -24.720108    3.142454    33.020626    -8.247021    -1.036333    -35.168369    -15.611444    0.000000    0.000000    0.000000    
10.856276    151.266052    -16.332766    -3.366932    -11.675635    -1.791473    5.442815    -3.279872    13.039824    -3.011917    -1.311658    4.260477    7.942534    -7.422741    -0.604997    2.964570    16.105333    -2.331842    2.711816    3.340282    -6.984706    -45.118011    20.395664    -37.564957    -7.148796    -14.608937    -129.379272    -0.161621    -28.709156    -3.794665    -14.766156    1.719825    6.498294    30.295177    -11.841330    74.602333    2.539764    -19.540482    8.128937    12.679412    -15.261292    40.235794    8.028602    -23.042488    -18.438955    -14.127825    27.821789    -15.403179    -5.949121    0.097965    39.822102    0.000000    0.000000    0.000000    5.050295    15.432202    -24.720713    3.091826    32.645935    -8.245024    -0.841414    -34.932949    -15.493113    0.000000    0.000000    0.000000    
10.979976    151.384644    -16.052174    -3.323851    -11.357954    -1.802449    5.428141    -3.192751    13.034776    -3.030069    -1.345114    4.259263    7.955080    -7.432209    -0.563727    2.910708    15.965046    -2.288536    2.702513    3.290982    -6.969267    -45.069157    20.454071    -37.564781    -7.119105    -14.754267    -129.369675    -0.164120    -28.781435    -3.819163    -14.806813    1.642914    6.503057    30.383345    -11.996549    74.589478    2.611837    -19.472347    8.190787    12.640029    -15.202278    40.315628    7.955333    -23.248152    -18.531141    -14.187698    27.811665    -15.302249    -5.873582    0.065983    39.873573    0.000000    0.000000    0.000000    5.001466    15.364135    -24.679735    3.088421    32.274841    -8.289836    -0.642630    -34.718250    -15.358279    0.000000    0.000000    0.000000    
11.102166    151.504562    -15.778521    -3.272591    -11.001289    -1.831111    5.371169    -3.120892    13.059330    -3.022376    -1.416157    4.267271    8.040785    -7.428482    -0.507388    2.780448    15.772524    -2.243488    2.721437    3.280710    -7.009503    -45.105057    20.367462    -37.555737    -7.119811    -14.711231    -129.362061    -0.134686    -28.742393    -3.813404    -14.782620    1.646160    6.444400    30.273420    -12.080668    74.601097    2.560566    -19.515388    8.287019    12.651929    -15.245849    40.272255    7.879769    -23.499969    -18.646971    -14.263015    27.810827    -15.169540    -5.788496    0.045466    39.926208    0.000000    0.000000    0.000000    4.936532    15.247082    -24.643860    3.078071    31.922157    -8.298489    -0.466212    -34.497749    -15.250971    0.000000    0.000000    0.000000    
11.237092    151.619904    -15.506402    -3.224339    -10.656457    -1.859061    5.368891    -3.039073    13.053732    -3.070516    -1.473232    4.264599    8.086653    -7.394316    -0.442798    2.697546    15.568762    -2.179030    2.744411    3.285359    -6.975678    -45.039417    20.395016    -37.596889    -7.098951    -14.856421    -129.340210    -0.180922    -28.826595    -3.834320    -14.819740    1.581970    6.475134    30.318996    -12.206830    74.575928    2.577075    -19.468079    8.335516    12.634055    -15.200529    40.317780    7.802316    -23.746790    -18.784229    -14.359078    27.809498    -15.007813    -5.703840    0.019389    39.993000    0.000000    0.000000    0.000000    4.867657    15.134894    -24.620066    3.057713    31.585911    -8.287234    -0.282317    -34.286076    -15.145686    0.000000    0.000000    0.000000    
